<svg width="596" height="98" viewBox="0 0 596 98" fill="none" xmlns="http://www.w3.org/2000/svg">
<path d="M0.59375 21.5938H16.25L26.1406 51.0781C26.4531 52.0156 26.7188 52.9688 26.9375 53.9375C27.1562 54.9062 27.3438 55.9062 27.5 56.9375C27.6562 57.9688 27.7812 59.0469 27.875 60.1719H28.1562C28.3438 58.4844 28.5938 56.9062 28.9062 55.4375C29.25 53.9688 29.6719 52.5156 30.1719 51.0781L39.875 21.5938H55.2031L33.0312 80.7031C31.6875 84.3281 29.9375 87.3438 27.7812 89.75C25.625 92.1875 23.1406 94.0156 20.3281 95.2344C17.5469 96.4531 14.4844 97.0625 11.1406 97.0625C9.51562 97.0625 8.10938 96.9688 6.92188 96.7812C5.73438 96.625 4.71875 96.4531 3.875 96.2656V84.9219C4.53125 85.0781 5.35938 85.2188 6.35938 85.3438C7.35938 85.4688 8.40625 85.5312 9.5 85.5312C11.5 85.5312 13.2188 85.1094 14.6562 84.2656C16.0938 83.4219 17.2969 82.2812 18.2656 80.8438C19.2344 79.4375 20 77.8906 20.5625 76.2031L21.4062 73.625L0.59375 21.5938ZM110.844 21.5938V74H99.875L97.9531 67.2969H97.2031C96.0781 69.0781 94.6719 70.5312 92.9844 71.6562C91.2969 72.7812 89.4375 73.6094 87.4062 74.1406C85.375 74.6719 83.2656 74.9375 81.0781 74.9375C77.3281 74.9375 74.0625 74.2812 71.2812 72.9688C68.5 71.625 66.3281 69.5469 64.7656 66.7344C63.2344 63.9219 62.4688 60.2656 62.4688 55.7656V21.5938H76.7656V52.2031C76.7656 55.9531 77.4375 58.7812 78.7812 60.6875C80.125 62.5938 82.2656 63.5469 85.2031 63.5469C88.1094 63.5469 90.3906 62.8906 92.0469 61.5781C93.7031 60.2344 94.8594 58.2812 95.5156 55.7188C96.2031 53.125 96.5469 49.9688 96.5469 46.25V21.5938H110.844ZM187.391 20.6094C193.328 20.6094 197.812 22.1406 200.844 25.2031C203.906 28.2344 205.438 33.1094 205.438 39.8281V74H191.094V43.3906C191.094 39.6406 190.453 36.8125 189.172 34.9062C187.891 33 185.906 32.0469 183.219 32.0469C179.438 32.0469 176.75 33.4062 175.156 36.125C173.562 38.8125 172.766 42.6719 172.766 47.7031V74H158.469V43.3906C158.469 40.8906 158.188 38.7969 157.625 37.1094C157.062 35.4219 156.203 34.1562 155.047 33.3125C153.891 32.4688 152.406 32.0469 150.594 32.0469C147.938 32.0469 145.844 32.7188 144.312 34.0625C142.812 35.375 141.734 37.3281 141.078 39.9219C140.453 42.4844 140.141 45.625 140.141 49.3438V74H125.844V21.5938H136.766L138.688 28.2969H139.484C140.547 26.4844 141.875 25.0156 143.469 23.8906C145.094 22.7656 146.875 21.9375 148.812 21.4062C150.75 20.875 152.719 20.6094 154.719 20.6094C158.562 20.6094 161.812 21.2344 164.469 22.4844C167.156 23.7344 169.219 25.6719 170.656 28.2969H171.922C173.484 25.6094 175.688 23.6562 178.531 22.4375C181.406 21.2188 184.359 20.6094 187.391 20.6094ZM281.703 20.6094C287.641 20.6094 292.125 22.1406 295.156 25.2031C298.219 28.2344 299.75 33.1094 299.75 39.8281V74H285.406V43.3906C285.406 39.6406 284.766 36.8125 283.484 34.9062C282.203 33 280.219 32.0469 277.531 32.0469C273.75 32.0469 271.062 33.4062 269.469 36.125C267.875 38.8125 267.078 42.6719 267.078 47.7031V74H252.781V43.3906C252.781 40.8906 252.5 38.7969 251.938 37.1094C251.375 35.4219 250.516 34.1562 249.359 33.3125C248.203 32.4688 246.719 32.0469 244.906 32.0469C242.25 32.0469 240.156 32.7188 238.625 34.0625C237.125 35.375 236.047 37.3281 235.391 39.9219C234.766 42.4844 234.453 45.625 234.453 49.3438V74H220.156V21.5938H231.078L233 28.2969H233.797C234.859 26.4844 236.188 25.0156 237.781 23.8906C239.406 22.7656 241.188 21.9375 243.125 21.4062C245.062 20.875 247.031 20.6094 249.031 20.6094C252.875 20.6094 256.125 21.2344 258.781 22.4844C261.469 23.7344 263.531 25.6719 264.969 28.2969H266.234C267.797 25.6094 270 23.6562 272.844 22.4375C275.719 21.2188 278.672 20.6094 281.703 20.6094ZM306.969 21.5938H322.625L332.516 51.0781C332.828 52.0156 333.094 52.9688 333.312 53.9375C333.531 54.9062 333.719 55.9062 333.875 56.9375C334.031 57.9688 334.156 59.0469 334.25 60.1719H334.531C334.719 58.4844 334.969 56.9062 335.281 55.4375C335.625 53.9688 336.047 52.5156 336.547 51.0781L346.25 21.5938H361.578L339.406 80.7031C338.062 84.3281 336.312 87.3438 334.156 89.75C332 92.1875 329.516 94.0156 326.703 95.2344C323.922 96.4531 320.859 97.0625 317.516 97.0625C315.891 97.0625 314.484 96.9688 313.297 96.7812C312.109 96.625 311.094 96.4531 310.25 96.2656V84.9219C310.906 85.0781 311.734 85.2188 312.734 85.3438C313.734 85.4688 314.781 85.5312 315.875 85.5312C317.875 85.5312 319.594 85.1094 321.031 84.2656C322.469 83.4219 323.672 82.2812 324.641 80.8438C325.609 79.4375 326.375 77.8906 326.938 76.2031L327.781 73.625L306.969 21.5938ZM423.031 32.3281H410.656V74H396.359V32.3281H388.484V25.4375L396.359 21.5938V17.75C396.359 13.2812 397.109 9.8125 398.609 7.34375C400.141 4.84375 402.281 3.09375 405.031 2.09375C407.812 1.0625 411.094 0.546875 414.875 0.546875C417.656 0.546875 420.188 0.78125 422.469 1.25C424.75 1.6875 426.609 2.1875 428.047 2.75L424.391 13.25C423.297 12.9062 422.109 12.5938 420.828 12.3125C419.547 12.0312 418.078 11.8906 416.422 11.8906C414.422 11.8906 412.953 12.5 412.016 13.7188C411.109 14.9062 410.656 16.4375 410.656 18.3125V21.5938H423.031V32.3281ZM478.906 47.7031C478.906 52.0781 478.312 55.9531 477.125 59.3281C475.969 62.7031 474.266 65.5625 472.016 67.9062C469.797 70.2188 467.109 71.9688 463.953 73.1562C460.828 74.3438 457.297 74.9375 453.359 74.9375C449.672 74.9375 446.281 74.3438 443.188 73.1562C440.125 71.9688 437.453 70.2188 435.172 67.9062C432.922 65.5625 431.172 62.7031 429.922 59.3281C428.703 55.9531 428.094 52.0781 428.094 47.7031C428.094 41.8906 429.125 36.9688 431.188 32.9375C433.25 28.9062 436.188 25.8438 440 23.75C443.812 21.6562 448.359 20.6094 453.641 20.6094C458.547 20.6094 462.891 21.6562 466.672 23.75C470.484 25.8438 473.469 28.9062 475.625 32.9375C477.812 36.9688 478.906 41.8906 478.906 47.7031ZM442.672 47.7031C442.672 51.1406 443.047 54.0312 443.797 56.375C444.547 58.7188 445.719 60.4844 447.312 61.6719C448.906 62.8594 450.984 63.4531 453.547 63.4531C456.078 63.4531 458.125 62.8594 459.688 61.6719C461.281 60.4844 462.438 58.7188 463.156 56.375C463.906 54.0312 464.281 51.1406 464.281 47.7031C464.281 44.2344 463.906 41.3594 463.156 39.0781C462.438 36.7656 461.281 35.0312 459.688 33.875C458.094 32.7188 456.016 32.1406 453.453 32.1406C449.672 32.1406 446.922 33.4375 445.203 36.0312C443.516 38.625 442.672 42.5156 442.672 47.7031ZM538.344 47.7031C538.344 52.0781 537.75 55.9531 536.562 59.3281C535.406 62.7031 533.703 65.5625 531.453 67.9062C529.234 70.2188 526.547 71.9688 523.391 73.1562C520.266 74.3438 516.734 74.9375 512.797 74.9375C509.109 74.9375 505.719 74.3438 502.625 73.1562C499.562 71.9688 496.891 70.2188 494.609 67.9062C492.359 65.5625 490.609 62.7031 489.359 59.3281C488.141 55.9531 487.531 52.0781 487.531 47.7031C487.531 41.8906 488.562 36.9688 490.625 32.9375C492.688 28.9062 495.625 25.8438 499.438 23.75C503.25 21.6562 507.797 20.6094 513.078 20.6094C517.984 20.6094 522.328 21.6562 526.109 23.75C529.922 25.8438 532.906 28.9062 535.062 32.9375C537.25 36.9688 538.344 41.8906 538.344 47.7031ZM502.109 47.7031C502.109 51.1406 502.484 54.0312 503.234 56.375C503.984 58.7188 505.156 60.4844 506.75 61.6719C508.344 62.8594 510.422 63.4531 512.984 63.4531C515.516 63.4531 517.562 62.8594 519.125 61.6719C520.719 60.4844 521.875 58.7188 522.594 56.375C523.344 54.0312 523.719 51.1406 523.719 47.7031C523.719 44.2344 523.344 41.3594 522.594 39.0781C521.875 36.7656 520.719 35.0312 519.125 33.875C517.531 32.7188 515.453 32.1406 512.891 32.1406C509.109 32.1406 506.359 33.4375 504.641 36.0312C502.953 38.625 502.109 42.5156 502.109 47.7031ZM566.75 74.9375C560.906 74.9375 556.141 72.6562 552.453 68.0938C548.797 63.5 546.969 56.7656 546.969 47.8906C546.969 38.9219 548.828 32.1406 552.547 27.5469C556.266 22.9219 561.125 20.6094 567.125 20.6094C569.625 20.6094 571.828 20.9531 573.734 21.6406C575.641 22.3281 577.281 23.25 578.656 24.4062C580.062 25.5625 581.25 26.8594 582.219 28.2969H582.688C582.5 27.2969 582.266 25.8281 581.984 23.8906C581.734 21.9219 581.609 19.9062 581.609 17.8438V1.0625H595.953V74H584.984L582.219 67.2031H581.609C580.703 68.6406 579.562 69.9531 578.188 71.1406C576.844 72.2969 575.234 73.2188 573.359 73.9062C571.484 74.5938 569.281 74.9375 566.75 74.9375ZM571.766 63.5469C575.672 63.5469 578.422 62.3906 580.016 60.0781C581.641 57.7344 582.5 54.2188 582.594 49.5312V47.9844C582.594 42.8906 581.812 39 580.25 36.3125C578.688 33.5938 575.781 32.2344 571.531 32.2344C568.375 32.2344 565.906 33.5938 564.125 36.3125C562.344 39.0312 561.453 42.9531 561.453 48.0781C561.453 53.2031 562.344 57.0625 564.125 59.6562C565.938 62.25 568.484 63.5469 571.766 63.5469Z" fill="#0F0F0F"/>
</svg>
