<svg width="302" height="26" viewBox="0 0 302 26" fill="none" xmlns="http://www.w3.org/2000/svg">
<path d="M0.452906 18.1174L0.458803 15.2367L0.893448 15.2401C1.20026 15.2426 1.46504 15.1708 1.6878 15.0249C1.91629 14.8733 2.10575 14.6276 2.25619 14.2879C2.40663 13.9482 2.5267 13.4974 2.6164 12.9356C2.70615 12.3681 2.76853 11.6697 2.80355 10.8404L3.06276 5.04688L13.017 5.12615L12.9127 18.2166L9.45262 18.1891L9.53414 7.95362L6.30413 7.92789L6.06775 11.9233C6.00789 13.0194 5.86686 13.9615 5.64467 14.7496C5.42815 15.5376 5.13039 16.183 4.75138 16.6857C4.37241 17.1827 3.91777 17.5484 3.38748 17.7828C2.85719 18.0172 2.24262 18.1317 1.54378 18.1261L0.452906 18.1174ZM17.4609 23.1621C17.0006 23.1584 16.5691 23.1181 16.1663 23.041C15.7692 22.9697 15.4403 22.879 15.1798 22.7689L16.0196 20.0653C16.4446 20.1994 16.8276 20.2735 17.1684 20.2875C17.5149 20.3017 17.8138 20.2245 18.0652 20.056C18.3222 19.8876 18.5319 19.5995 18.6942 19.1917L18.9117 18.6394L14.3231 5.13655L18.1411 5.16696L20.7747 14.8019L20.9111 14.803L23.7233 5.21142L27.567 5.24203L22.3635 19.7067C22.1136 20.4093 21.7763 21.0203 21.3517 21.5396C20.9328 22.0647 20.404 22.4668 19.7654 22.7458C19.1267 23.0305 18.3586 23.1693 17.4609 23.1621ZM40.4337 5.3445L40.3295 18.435L36.8864 18.4076L36.9907 5.31708L40.4337 5.3445ZM38.7091 11.0753L38.6863 13.9388C38.4069 14.0616 38.0593 14.1781 37.6437 14.2885C37.2281 14.3931 36.7927 14.4777 36.3376 14.5423C35.8826 14.6068 35.4562 14.6375 35.0584 14.6344C33.1778 14.6194 31.7008 14.2213 30.6275 13.44C29.5542 12.653 29.0243 11.4072 29.0379 9.70275L29.0734 5.23698L32.4995 5.26427L32.4639 9.73003C32.4599 10.2357 32.5419 10.6369 32.71 10.9337C32.8838 11.2306 33.1605 11.4459 33.5401 11.5796C33.9255 11.7076 34.4392 11.7742 35.0812 11.7794C35.6778 11.7841 36.2635 11.7263 36.8383 11.6058C37.4131 11.4854 38.0367 11.3086 38.7091 11.0753ZM43.2525 5.36695L46.7212 5.39458L46.6399 15.6045L50.3301 15.6339L50.4114 5.42397L53.88 5.45159L53.7987 15.6615L57.489 15.6909L57.5703 5.48098L61.0389 5.50861L60.9347 18.5991L43.1483 18.4574L43.2525 5.36695ZM67.256 13.8595L72.035 5.59618L75.6144 5.62469L75.5102 18.7152L72.0501 18.6876L72.1164 10.3612L67.3542 18.6502L63.7492 18.6215L63.8534 5.53102L67.3221 5.55865L67.256 13.8595ZM81.9274 13.9764L86.7064 5.71303L90.2858 5.74153L90.1816 18.832L86.7215 18.8045L86.7878 10.478L82.0256 18.7671L78.4206 18.7384L78.5249 5.64787L81.9935 5.67549L81.9274 13.9764ZM86.1207 1.14003L88.6518 1.16019C88.6379 2.1942 88.2478 3.02351 87.4814 3.64811C86.7207 4.27275 85.6955 4.57994 84.4058 4.56967C83.1104 4.55935 82.0874 4.23585 81.3367 3.59917C80.5861 2.96249 80.2149 2.12712 80.2231 1.09306L82.7372 1.11309C82.7284 1.50508 82.8506 1.85833 83.1038 2.17286C83.3627 2.48743 83.8018 2.64718 84.4211 2.65211C85.0233 2.65691 85.4563 2.50695 85.7201 2.20222C85.9839 1.89749 86.1174 1.54343 86.1207 1.14003ZM98.6074 23.8084L98.7508 5.80895L102.33 5.83746L102.313 8.03625L102.475 8.03754C102.637 7.68654 102.869 7.33043 103.173 6.96921C103.483 6.60234 103.883 6.2987 104.374 6.05829C104.87 5.81223 105.485 5.69212 106.218 5.69796C107.172 5.70556 108.051 5.96257 108.854 6.46897C109.657 6.9697 110.296 7.72197 110.771 8.72579C111.246 9.72392 111.477 10.973 111.465 12.4729C111.454 13.9331 111.208 15.1641 110.728 16.166C110.254 17.1623 109.612 17.9157 108.801 18.4263C107.996 18.9313 107.096 19.1798 106.102 19.1719C105.397 19.1663 104.799 19.045 104.307 18.8082C103.82 18.5713 103.422 18.2755 103.112 17.9208C102.802 17.5603 102.566 17.1977 102.405 16.8327L102.294 16.8318L102.238 23.8373L98.6074 23.8084ZM102.253 12.3825C102.246 13.1609 102.349 13.8407 102.56 14.4219C102.771 15.0032 103.08 15.4574 103.487 15.7845C103.893 16.1059 104.389 16.269 104.974 16.2736C105.565 16.2783 106.067 16.1204 106.478 15.7998C106.89 15.4735 107.203 15.0214 107.418 14.4436C107.639 13.8601 107.752 13.1877 107.758 12.4263C107.764 11.6707 107.664 11.0051 107.459 10.4296C107.253 9.85406 106.947 9.40274 106.54 9.07563C106.134 8.74852 105.632 8.58259 105.036 8.57784C104.445 8.57313 103.944 8.7254 103.532 9.03463C103.126 9.34391 102.813 9.78461 102.593 10.3567C102.372 10.9289 102.259 11.6041 102.253 12.3825ZM119.797 19.3236C118.451 19.3129 117.294 19.0309 116.327 18.4777C115.365 17.9189 114.627 17.1346 114.112 16.1248C113.598 15.1093 113.346 13.9112 113.357 12.5306C113.368 11.184 113.638 10.0043 114.169 8.9915C114.7 7.97865 115.442 7.19192 116.395 6.63131C117.354 6.07075 118.476 5.79558 119.76 5.80581C120.624 5.81269 121.426 5.95829 122.169 6.24262C122.916 6.52131 123.566 6.93843 124.119 7.49399C124.677 8.04958 125.109 8.74623 125.415 9.58392C125.721 10.4159 125.869 11.3887 125.86 12.5023L125.852 13.4995L114.799 13.4114L114.817 11.1615L122.453 11.2223C122.457 10.6996 122.347 10.2356 122.123 9.83044C121.899 9.42523 121.586 9.10739 121.184 8.87691C120.789 8.6408 120.326 8.52063 119.798 8.51643C119.247 8.51204 118.757 8.63598 118.329 8.88826C117.907 9.13491 117.574 9.47034 117.332 9.89456C117.09 10.3131 116.965 10.7809 116.955 11.2978L116.938 13.437C116.933 14.0847 117.047 14.6453 117.282 15.1188C117.523 15.5923 117.864 15.9586 118.305 16.2178C118.746 16.477 119.271 16.6091 119.878 16.6139C120.282 16.6171 120.652 16.5633 120.988 16.4523C121.324 16.3413 121.612 16.1732 121.853 15.9478C122.093 15.7224 122.277 15.4455 122.405 15.1169L125.761 15.3653C125.584 16.1707 125.229 16.8724 124.696 17.4705C124.168 18.0629 123.488 18.5234 122.656 18.852C121.83 19.175 120.877 19.3322 119.797 19.3236ZM134.089 19.4374C132.749 19.4267 131.597 19.1335 130.636 18.5576C129.68 17.9761 128.948 17.1748 128.439 16.1537C127.936 15.1326 127.69 13.9601 127.7 12.6363C127.711 11.2954 127.979 10.1214 128.504 9.11419C129.035 8.10133 129.782 7.31465 130.747 6.75413C131.712 6.18794 132.856 5.91011 134.18 5.92065C135.322 5.92975 136.32 6.14509 137.175 6.56668C138.03 6.98828 138.704 7.57605 139.198 8.33001C139.692 9.08397 139.96 9.96682 140.004 10.9786L136.578 10.9513C136.486 10.2971 136.235 9.76952 135.823 9.36851C135.417 8.96185 134.882 8.75588 134.217 8.75058C133.655 8.7461 133.162 8.89559 132.739 9.19905C132.322 9.49688 131.995 9.93463 131.757 10.5123C131.519 11.09 131.397 11.7907 131.391 12.6146C131.384 13.4498 131.492 14.1609 131.715 14.7479C131.943 15.335 132.266 15.7836 132.684 16.0937C133.102 16.4039 133.592 16.5612 134.155 16.5657C134.57 16.569 134.942 16.4867 135.273 16.3189C135.61 16.1511 135.887 15.9062 136.106 15.584C136.33 15.2563 136.478 14.8625 136.55 14.4029L139.976 14.4301C139.911 15.4297 139.632 16.3081 139.137 17.0656C138.648 17.8174 137.976 18.403 137.12 18.8223C136.264 19.2417 135.254 19.4467 134.089 19.4374ZM141.451 9.00422L141.474 6.1492L153.337 6.24368L153.314 9.09871L149.096 9.06511L149.014 19.3006L145.554 19.273L145.636 9.03755L141.451 9.00422ZM160.878 19.6508C159.554 19.6402 158.411 19.3498 157.45 18.7797C156.494 18.2039 155.759 17.4082 155.244 16.3927C154.73 15.3715 154.478 14.1905 154.488 12.8497C154.499 11.4974 154.77 10.3177 155.301 9.31055C155.831 8.2977 156.579 7.51386 157.544 6.95902C158.514 6.39855 159.661 6.12359 160.985 6.13413C162.309 6.14468 163.449 6.43785 164.404 7.01366C165.366 7.58384 166.104 8.37951 166.619 9.40069C167.133 10.4162 167.385 11.6 167.374 12.9523C167.364 14.2931 167.093 15.47 166.562 16.4829C166.031 17.49 165.281 18.2738 164.31 18.8343C163.346 19.3891 162.201 19.6613 160.878 19.6508ZM160.917 16.8385C161.519 16.8433 162.023 16.6768 162.43 16.3391C162.836 15.9958 163.143 15.5266 163.353 14.9317C163.568 14.3368 163.678 13.6587 163.684 12.8973C163.69 12.136 163.591 11.4562 163.385 10.8579C163.185 10.2597 162.885 9.78574 162.485 9.43595C162.084 9.08616 161.582 8.90886 160.98 8.90407C160.372 8.89923 159.86 9.06844 159.442 9.41172C159.03 9.75504 158.717 10.2242 158.502 10.819C158.293 11.414 158.185 12.0921 158.179 12.8535C158.173 13.6148 158.27 14.2946 158.469 14.8928C158.675 15.491 158.981 15.9651 159.387 16.3149C159.799 16.6591 160.309 16.8336 160.917 16.8385ZM169.644 24.3741L169.788 6.3747L173.367 6.4032L173.35 8.602L173.511 8.60329C173.673 8.25229 173.906 7.89618 174.21 7.53496C174.52 7.16809 174.92 6.86445 175.411 6.62403C175.907 6.37798 176.522 6.25787 177.255 6.26371C178.209 6.27131 179.088 6.52831 179.891 7.03472C180.693 7.53545 181.332 8.28772 181.807 9.29154C182.282 10.2897 182.514 11.5387 182.502 13.0387C182.49 14.4988 182.245 15.7299 181.765 16.7318C181.291 17.728 180.649 18.4815 179.838 18.9921C179.033 19.497 178.133 19.7456 177.139 19.7376C176.434 19.732 175.836 19.6108 175.343 19.3739C174.857 19.1371 174.458 18.8413 174.149 18.4865C173.839 18.1261 173.603 17.7634 173.441 17.3985L173.331 17.3976L173.275 24.403L169.644 24.3741ZM173.289 12.9482C173.283 13.7266 173.386 14.4064 173.597 14.9877C173.808 15.5689 174.117 16.0231 174.524 16.3502C174.93 16.6717 175.426 16.8347 176.011 16.8394C176.602 16.8441 177.103 16.6861 177.515 16.3655C177.927 16.0393 178.24 15.5872 178.455 15.0093C178.675 14.4258 178.789 13.7534 178.795 12.9921C178.801 12.2364 178.701 11.5708 178.495 10.9953C178.29 10.4198 177.984 9.96849 177.577 9.64138C177.171 9.31427 176.669 9.14834 176.073 9.14359C175.482 9.13888 174.98 9.29114 174.569 9.60038C174.163 9.90965 173.85 10.3504 173.629 10.9225C173.409 11.4946 173.296 12.1699 173.289 12.9482ZM188.601 19.863C187.766 19.8564 187.023 19.7056 186.372 19.4106C185.721 19.1099 185.207 18.6712 184.831 18.0943C184.461 17.5118 184.279 16.7887 184.286 15.9251C184.292 15.1979 184.43 14.5882 184.701 14.096C184.972 13.6038 185.339 13.209 185.801 12.9115C186.264 12.6141 186.789 12.391 187.375 12.2422C187.967 12.0935 188.587 11.9905 189.235 11.9332C189.997 11.8597 190.612 11.7907 191.078 11.7262C191.545 11.6561 191.883 11.5508 192.095 11.4105C192.306 11.2701 192.413 11.0607 192.415 10.7823L192.416 10.7312C192.42 10.1914 192.253 9.77246 191.914 9.4743C191.581 9.17619 191.105 9.02467 190.486 9.01973C189.833 9.01453 189.312 9.15527 188.923 9.44196C188.534 9.72296 188.276 10.0789 188.147 10.5097L184.792 10.2102C184.968 9.41615 185.309 8.73134 185.814 8.15579C186.318 7.57456 186.967 7.13085 187.759 6.82465C188.557 6.51281 189.479 6.36106 190.524 6.36939C191.251 6.37518 191.947 6.46594 192.61 6.64169C193.279 6.81748 193.871 7.0864 194.385 7.44846C194.905 7.81057 195.313 8.27406 195.61 8.83894C195.906 9.39814 196.052 10.0669 196.045 10.8453L195.975 19.6746L192.532 19.6472L192.547 17.8319L192.444 17.8311C192.231 18.2385 191.947 18.597 191.592 18.9067C191.237 19.2107 190.812 19.4488 190.316 19.621C189.821 19.7875 189.249 19.8682 188.601 19.863ZM189.661 17.3657C190.195 17.37 190.667 17.2686 191.078 17.0616C191.489 16.849 191.812 16.5618 192.048 16.2C192.284 15.8382 192.404 15.4273 192.407 14.967L192.418 13.5779C192.304 13.6508 192.147 13.7178 191.948 13.7787C191.754 13.834 191.535 13.8862 191.291 13.9354C191.046 13.9789 190.801 14.0196 190.557 14.0574C190.312 14.0895 190.09 14.119 189.891 14.1458C189.464 14.2049 189.092 14.3014 188.772 14.4352C188.453 14.5691 188.204 14.7517 188.026 14.9833C187.848 15.2092 187.758 15.4925 187.755 15.8334C187.752 16.3277 187.927 16.707 188.283 16.9712C188.645 17.2298 189.104 17.3613 189.661 17.3657ZM207.966 11.7755L207.943 14.6305L201.108 14.5761L201.131 11.7211L207.966 11.7755ZM202.365 6.63415L202.26 19.7246L198.792 19.697L198.896 6.60652L202.365 6.63415ZM210.282 6.6972L210.178 19.7877L206.735 19.7603L206.839 6.66978L210.282 6.6972ZM227.619 6.83527L227.596 9.6903L222.159 9.64699L222.077 19.8825L218.549 19.8544L218.653 6.76387L227.619 6.83527ZM235.172 20.2424C233.848 20.2319 232.706 19.9415 231.744 19.3714C230.789 18.7956 230.053 17.9999 229.539 16.9844C229.024 15.9632 228.772 14.7822 228.783 13.4413C228.794 12.0891 229.064 10.9094 229.595 9.90225C230.126 8.8894 230.874 8.10555 231.838 7.55072C232.809 6.99025 233.956 6.71528 235.28 6.72583C236.604 6.73637 237.743 7.02955 238.699 7.60536C239.66 8.17553 240.398 8.97121 240.913 9.99238C241.428 11.0079 241.68 12.1917 241.669 13.544C241.658 14.8848 241.387 16.0617 240.857 17.0745C240.326 18.0817 239.575 18.8655 238.605 19.426C237.64 19.9808 236.496 20.253 235.172 20.2424ZM235.212 17.4302C235.814 17.435 236.318 17.2685 236.724 16.9308C237.13 16.5875 237.438 16.1183 237.647 15.5234C237.862 14.9285 237.973 14.2504 237.979 13.489C237.985 12.7277 237.885 12.0479 237.68 11.4496C237.48 10.8514 237.18 10.3774 236.779 10.0276C236.378 9.67785 235.877 9.50056 235.275 9.49576C234.667 9.49092 234.154 9.66014 233.737 10.0034C233.325 10.3467 233.011 10.8158 232.796 11.4107C232.587 12.0057 232.479 12.6838 232.473 13.4452C232.467 14.2065 232.564 14.8863 232.764 15.4845C232.969 16.0827 233.275 16.5568 233.682 16.9066C234.094 17.2508 234.604 17.4253 235.212 17.4302ZM243.939 24.9658L244.082 6.96639L247.662 6.9949L247.644 9.19369L247.806 9.19498C247.968 8.84399 248.201 8.48787 248.505 8.12665C248.815 7.75978 249.215 7.45614 249.705 7.21573C250.202 6.96967 250.816 6.84956 251.549 6.8554C252.504 6.863 253.382 7.12001 254.185 7.62642C254.988 8.12714 255.627 8.87941 256.102 9.88323C256.577 10.8814 256.808 12.1304 256.796 13.6304C256.785 15.0905 256.539 16.3216 256.06 17.3235C255.586 18.3197 254.943 19.0732 254.133 19.5838C253.327 20.0887 252.428 20.3373 251.433 20.3293C250.729 20.3237 250.13 20.2025 249.638 19.9656C249.151 19.7288 248.753 19.433 248.443 19.0782C248.134 18.7178 247.898 18.3551 247.736 17.9902L247.625 17.9893L247.569 24.9947L243.939 24.9658ZM247.584 13.5399C247.578 14.3183 247.68 14.9981 247.891 15.5794C248.103 16.1606 248.412 16.6148 248.818 16.9419C249.225 17.2634 249.721 17.4264 250.306 17.4311C250.897 17.4358 251.398 17.2778 251.81 16.9572C252.221 16.6309 252.535 16.1789 252.749 15.601C252.97 15.0175 253.083 14.3451 253.089 13.5838C253.095 12.8281 252.996 12.1625 252.79 11.587C252.584 11.0115 252.278 10.5602 251.872 10.2331C251.465 9.90596 250.964 9.74003 250.367 9.73528C249.776 9.73057 249.275 9.88284 248.863 10.1921C248.458 10.5013 248.144 10.942 247.924 11.5142C247.703 12.0863 247.59 12.7616 247.584 13.5399ZM265.077 20.4806C263.754 20.4701 262.611 20.1797 261.65 19.6095C260.694 19.0337 259.959 18.2381 259.444 17.2226C258.929 16.2014 258.678 15.0204 258.688 13.6795C258.699 12.3273 258.97 11.1476 259.501 10.1404C260.031 9.12757 260.779 8.34372 261.744 7.78889C262.714 7.22842 263.861 6.95345 265.185 6.964C266.509 6.97454 267.649 7.26772 268.604 7.84353C269.566 8.4137 270.304 9.20938 270.818 10.2306C271.333 11.246 271.585 12.4299 271.574 13.7821C271.563 15.123 271.293 16.2999 270.762 17.3127C270.231 18.3199 269.481 19.1037 268.51 19.6642C267.545 20.219 266.401 20.4912 265.077 20.4806ZM265.117 17.6683C265.719 17.6731 266.223 17.5067 266.629 17.169C267.036 16.8256 267.343 16.3565 267.553 15.7615C267.768 15.1666 267.878 14.4885 267.884 13.7272C267.89 12.9658 267.79 12.2861 267.585 11.6878C267.385 11.0896 267.085 10.6156 266.684 10.2658C266.284 9.91602 265.782 9.73873 265.18 9.73393C264.572 9.72909 264.059 9.89831 263.642 10.2416C263.23 10.5849 262.917 11.054 262.702 11.6489C262.492 12.2439 262.385 12.922 262.379 13.6833C262.373 14.4447 262.469 15.1244 262.669 15.7226C262.875 16.3209 263.181 16.7949 263.587 17.1448C263.999 17.489 264.509 17.6635 265.117 17.6683ZM272.83 24.122L272.883 17.4063L273.889 17.4143C274.18 17.2348 274.416 16.9469 274.595 16.5506C274.78 16.1543 274.931 15.6868 275.049 15.1479C275.173 14.6091 275.268 14.0275 275.336 13.403C275.409 12.7729 275.474 12.137 275.53 11.4954L275.905 7.21983L285.944 7.29979L285.863 17.5097L287.891 17.5258L287.838 24.2415L284.378 24.214L284.408 20.3789L276.406 20.3151L276.375 24.1502L272.83 24.122ZM277.503 17.4431L282.437 17.4824L282.496 10.0679L278.968 10.0398L278.82 11.5216C278.712 12.9185 278.563 14.1049 278.374 15.0807C278.184 16.0508 277.894 16.8382 277.503 17.4431ZM293.715 20.7002C292.88 20.6935 292.137 20.5427 291.486 20.2477C290.835 19.9471 290.321 19.5083 289.945 18.9314C289.575 18.3489 289.393 17.6259 289.4 16.7623C289.406 16.035 289.544 15.4253 289.815 14.9331C290.086 14.4409 290.453 14.0461 290.915 13.7487C291.378 13.4512 291.902 13.2281 292.489 13.0794C293.081 12.9307 293.701 12.8276 294.349 12.7703C295.111 12.6968 295.725 12.6279 296.192 12.5634C296.658 12.4932 296.997 12.388 297.209 12.2476C297.42 12.1072 297.527 11.8979 297.529 11.6195L297.529 11.5683C297.534 11.0286 297.367 10.6096 297.028 10.3114C296.695 10.0133 296.219 9.86181 295.6 9.85688C294.946 9.85167 294.425 9.99241 294.037 10.2791C293.648 10.5601 293.39 10.916 293.261 11.3468L289.905 11.0474C290.082 10.2533 290.423 9.56848 290.928 8.99293C291.432 8.41171 292.081 7.96799 292.873 7.66179C293.671 7.34996 294.593 7.1982 295.638 7.20653C296.365 7.21232 297.061 7.30309 297.724 7.47883C298.393 7.65462 298.985 7.92354 299.499 8.2856C300.019 8.64771 300.427 9.1112 300.724 9.67608C301.02 10.2353 301.165 10.9041 301.159 11.6825L301.089 20.5117L297.646 20.4843L297.66 18.669L297.558 18.6682C297.345 19.0756 297.06 19.4342 296.706 19.7438C296.351 20.0478 295.926 20.2859 295.43 20.4581C294.934 20.6246 294.363 20.7053 293.715 20.7002ZM294.775 18.2028C295.309 18.2071 295.781 18.1057 296.192 17.8988C296.603 17.6861 296.926 17.3989 297.162 17.0372C297.398 16.6754 297.518 16.2644 297.521 15.8042L297.532 14.415C297.418 14.488 297.261 14.5549 297.062 14.6158C296.868 14.6711 296.649 14.7233 296.404 14.7725C296.16 14.816 295.915 14.8567 295.67 14.8945C295.426 14.9267 295.204 14.9562 295.005 14.983C294.578 15.0421 294.205 15.1386 293.886 15.2724C293.567 15.4062 293.318 15.5889 293.14 15.8204C292.962 16.0463 292.872 16.3297 292.869 16.6706C292.865 17.1649 293.041 17.5441 293.397 17.8083C293.759 18.0669 294.218 18.1984 294.775 18.2028Z" fill="#A90303"/>
</svg>
